<?xml version="1.0" encoding="UTF-8" standalone="no"?>
<svg
   xmlns:dc="http://purl.org/dc/elements/1.1/"
   xmlns:cc="http://creativecommons.org/ns#"
   xmlns:rdf="http://www.w3.org/1999/02/22-rdf-syntax-ns#"
   xmlns:svg="http://www.w3.org/2000/svg"
   xmlns="http://www.w3.org/2000/svg"
   xmlns:sodipodi="http://sodipodi.sourceforge.net/DTD/sodipodi-0.dtd"
   xmlns:inkscape="http://www.inkscape.org/namespaces/inkscape"
   version="1.0"
   width="125.55787pt"
   height="125.88655pt"
   viewBox="0 0 125.55786 125.88654"
   preserveAspectRatio="xMidYMid meet"
   id="svg16"
   sodipodi:docname="orange.svg"
   inkscape:version="0.92.2 (unknown)">
  <sodipodi:namedview
     pagecolor="#ffffff"
     bordercolor="#666666"
     borderopacity="1"
     objecttolerance="10"
     gridtolerance="10"
     guidetolerance="10"
     inkscape:pageopacity="1"
     inkscape:pageshadow="2"
     inkscape:window-width="1325"
     inkscape:window-height="753"
     id="namedview18"
     showgrid="false"
     inkscape:zoom="2.2818163"
     inkscape:cx="174.71524"
     inkscape:cy="67.205801"
     inkscape:window-x="41"
     inkscape:window-y="15"
     inkscape:window-maximized="1"
     inkscape:current-layer="svg16"
     inkscape:pagecheckerboard="false" />
  <defs
     id="defs20" />
  <metadata
     id="metadata2">
Created by potrace 1.11, written by Peter Selinger 2001-2013
<rdf:RDF>
  <cc:Work
     rdf:about="">
    <dc:format>image/svg+xml</dc:format>
    <dc:type
       rdf:resource="http://purl.org/dc/dcmitype/StillImage" />
    <dc:title></dc:title>
  </cc:Work>
</rdf:RDF>
</metadata>
  <g
     inkscape:label="Layer 1"
     id="layer1"
     inkscape:groupmode="layer"
     transform="translate(-0.32868508,-0.44207007)" />
  <path
     inkscape:connector-curvature="0"
     id="path3810"
     d=""
     style="stroke-width:0.32868552" />
  <rect
     id="rect16"
     width="125.55787"
     height="125.88655"
     x="5.5511151e-17"
     y="1.110223e-16"
     style="fill:#ff6600;stroke-width:0.75196594" />
  <path
     inkscape:connector-curvature="0"
     id="path3804-3"
     d="m 12.303265,109.75704 c -2.000933,-0.868 -3.3564,-2.1517 -4.18648,-3.96484 -2.14373,-4.68253 -0.77703,-10.231302 3.078196,-12.497382 1.408935,-0.828158 1.899861,-0.932243 4.380587,-0.92874 3.261076,0.0045 4.872532,0.66828 6.551359,2.69817 2.647556,3.201194 2.634516,9.159192 -0.02709,12.377652 -2.087271,2.52396 -6.76622,3.6297 -9.796575,2.31514 z m 5.903137,-4.00097 c 2.005676,-1.81694 2.106516,-7.130837 0.169848,-8.95024 -1.050468,-0.986865 -3.333332,-1.243845 -4.712763,-0.530511 -2.72321,1.408221 -3.120529,7.153721 -0.654033,9.457781 1.40424,1.31175 3.762784,1.32218 5.196948,0.023 z"
     style="stroke-width:0.32868552" />
  <path
     inkscape:connector-curvature="0"
     id="path3806-6"
     d="m 27.408247,101.23664 v -8.71016 h 2.136457 2.136456 v 1.026143 c 0,1.00587 0.01462,1.015417 0.739542,0.483322 1.098526,-0.806325 3.288013,-1.822702 3.944227,-1.830937 0.483983,-0.006 0.575199,0.30201 0.575199,1.942747 0,2.113869 0.04637,2.064759 -2.325383,2.462679 -0.646241,0.108426 -1.496716,0.496873 -1.889941,0.863218 -0.682894,0.63621 -0.71496,0.930855 -0.71496,6.569628 v 5.90353 h -2.300797 -2.3008 z"
     style="stroke-width:0.32868552" />
  <path
     inkscape:connector-curvature="0"
     id="path3812-7"
     d="m 41.034631,109.35635 c -1.921562,-1.21387 -2.74069,-3.35837 -2.13788,-5.59704 0.659773,-2.45021 3.685009,-4.22756 8.568486,-5.03405 2.09637,-0.346208 2.293627,-0.446595 2.293627,-1.16727 0,-1.239195 -1.390764,-2.403315 -2.861058,-2.39481 -1.28941,0.0075 -3.790564,0.964539 -4.183914,1.600989 -0.261874,0.423718 -2.808985,-0.902071 -2.813062,-1.464226 -0.0029,-0.402135 1.29114,-1.410045 2.955638,-2.302088 1.539892,-0.825255 6.586558,-0.876742 8.052796,-0.08215 2.750378,1.490497 3.061571,2.631547 3.098516,11.361275 l 0.02399,5.66983 h -1.965848 c -1.802358,0 -1.98236,-0.0658 -2.164353,-0.7909 l -0.198501,-0.79089 -1.533359,0.67986 c -2.213586,0.98146 -5.824939,1.1391 -7.135082,0.31147 z m 7.36559,-3.21577 c 1.002362,-0.59211 1.029957,-0.67178 1.029957,-2.97354 v -2.36513 l -2.052662,0.47886 c -2.313307,0.53966 -3.28716,1.07984 -4.052492,2.2479 -0.567032,0.86539 -0.411401,2.50273 0.292113,3.0732 0.971033,0.78741 3.000557,0.59167 4.783084,-0.46129 z"
     style="stroke-width:0.32868552" />
  <path
     inkscape:connector-curvature="0"
     id="path3814-5"
     d="m 57.976003,101.40098 v -8.54582 h 0.780627 c 0.429345,0 1.242843,-0.09244 1.80777,-0.205425 0.927563,-0.185512 1.027143,-0.127095 1.027143,0.602588 0,0.444412 0.08939,0.897405 0.198633,1.00665 0.109247,0.109245 1.068584,-0.257385 2.131859,-0.81474 2.584479,-1.354748 4.719636,-1.551795 6.656263,-0.614288 2.370914,1.14774 2.517239,1.730055 2.517239,10.017625 v 7.09924 h -2.136456 -2.136456 v -6.68711 c 0,-6.060938 -0.05629,-6.738051 -0.60108,-7.23108 -0.852667,-0.771652 -2.929932,-0.674047 -4.493546,0.21114 l -1.314741,0.744292 -0.08912,6.481378 -0.08912,6.48138 h -2.129507 -2.129508 z"
     style="stroke-width:0.32868552" />
  <path
     inkscape:connector-curvature="0"
     id="path3816-3"
     d="m 80.477367,115.90271 c -1.240717,-0.56358 -3.108915,-2.36681 -3.108915,-3.0008 0,-0.33847 0.638655,-0.52951 2.711655,-0.81115 0.994035,-0.13505 1.561253,-0.0885 1.561253,0.12827 0,0.7209 2.048445,1.41962 3.697403,1.26118 2.384062,-0.22908 2.98641,-0.98157 3.153555,-3.93963 l 0.13458,-2.38177 -0.977573,1.04649 c -0.53766,0.57557 -1.406842,1.14127 -1.931512,1.25711 -0.524663,0.11584 -1.143975,0.26956 -1.376243,0.34159 -0.23226,0.072 -1.19367,-0.0335 -2.13645,-0.23462 -3.569415,-0.76125 -5.754705,-4.44503 -5.419133,-9.13511 0.165855,-2.31804 1.144815,-4.938637 2.324115,-6.22146 2.119913,-2.306002 6.438571,-2.633535 8.633123,-0.65475 0.882855,0.796058 1.017323,0.77373 1.264193,-0.209872 0.189105,-0.753458 0.358305,-0.821708 2.036962,-0.821708 h 1.830735 l -0.1152,9.77839 c -0.100387,8.52103 -0.188625,9.91357 -0.68625,10.82963 -0.732817,1.34904 -2.35398,2.56734 -4.022932,3.02323 -2.10084,0.57385 -6.040666,0.44119 -7.573366,-0.25502 z m 6.069856,-10.05184 c 1.220572,-0.63118 1.996537,-2.62283 1.996537,-5.12446 0,-3.332385 -1.1733,-5.153085 -3.52392,-5.46837 -1.8009,-0.241552 -3.169943,0.945369 -3.716025,3.221715 -0.43284,1.804265 -0.244935,4.634075 0.401985,6.053915 0.746348,1.63806 3.023108,2.25749 4.841423,1.3172 z"
     style="stroke-width:0.32868552" />
  <path
     inkscape:connector-curvature="0"
     id="path3818-5"
     d="m 100.18884,109.32467 c -1.698423,-0.77141 -3.23773,-2.63033 -3.800462,-4.58959 -0.543878,-1.89362 -0.542588,-5.33392 0.003,-7.225938 0.584767,-2.028952 2.658659,-4.159319 4.713452,-4.841819 2.86413,-0.951308 6.85199,-0.14571 8.54471,1.726132 0.92232,1.019918 1.86886,3.483382 2.10262,5.472255 l 0.21907,1.86396 h -5.96159 c -5.46408,0 -5.9604,0.048 -5.94717,0.5752 0.0233,0.9261 0.86148,3.03121 1.47853,3.71305 1.20129,1.3274 4.34439,1.2192 6.04046,-0.20794 l 0.97906,-0.82382 1.33141,0.67923 c 1.5176,0.77422 1.64254,1.24528 0.59188,2.23161 -2.16188,2.02952 -7.37716,2.75278 -10.29468,1.42767 z m 7.41867,-10.75001 c 0,-0.986993 -1.01644,-2.669662 -1.83907,-3.044475 -1.02291,-0.466065 -2.92897,-0.484177 -3.76679,-0.03578 -0.74888,0.400793 -1.62522,1.981816 -1.62522,2.932103 0,0.63831 0.18992,0.673695 3.61554,0.673695 3.09406,0 3.61554,-0.07579 3.61554,-0.525525 z"
     style="stroke-width:0.32868552" />
  <path
     inkscape:connector-curvature="0"
     id="path3820-6"
     d="M 111.22306,89.07528 V 86.610135 H 110.237 c -0.54233,0 -0.98606,-0.147907 -0.98606,-0.32868 0,-0.185415 0.93128,-0.328687 2.13646,-0.328687 1.20518,0 2.13646,0.143272 2.13646,0.328687 0,0.180773 -0.36977,0.32868 -0.82172,0.32868 -0.80345,0 -0.82171,0.05475 -0.82171,2.465145 0,1.424303 -0.13878,2.465138 -0.32869,2.465138 -0.18991,0 -0.32868,-1.040835 -0.32868,-2.465138 z"
     style="stroke-width:0.32868552" />
  <path
     inkscape:connector-curvature="0"
     id="path3822-2"
     d="m 115.16728,88.746593 c 0,-2.514248 0.0618,-2.793825 0.6173,-2.793825 0.4534,0 0.81311,0.523597 1.35482,1.97211 0.40564,1.084665 0.85532,1.972117 0.99929,1.972117 0.14398,0 0.6059,-0.887452 1.02648,-1.972117 0.53154,-1.37079 0.94061,-1.97211 1.34158,-1.97211 0.50479,0 0.57688,0.349072 0.57688,2.793825 0,3.409665 -0.59007,3.743992 -0.72515,0.410857 l -0.0966,-2.382967 -0.9518,2.372752 c -0.52349,1.305008 -1.05995,2.305913 -1.19213,2.224223 -0.13217,-0.08169 -0.5774,-1.00152 -0.98938,-2.044065 -1.09409,-2.768625 -1.30394,-2.79333 -1.30394,-0.15351 0,1.358565 -0.14,2.366535 -0.32869,2.366535 -0.19334,0 -0.32869,-1.150395 -0.32869,-2.793825 z"
     style="stroke-width:0.32868552" />
</svg>
